<svg width="21" height="20" viewBox="0 0 21 20" fill="none" xmlns="http://www.w3.org/2000/svg">
<g id="01 align center">
<path id="Vector" d="M15.0835 0.764404C14.1451 0.779 13.2272 1.04095 12.4224 1.5238C11.6177 2.00665 10.9546 2.6933 10.5001 3.5144C10.0457 2.6933 9.38257 2.00665 8.57783 1.5238C7.77308 1.04095 6.85517 0.779 5.91679 0.764404C4.42091 0.829397 3.01155 1.48378 1.99661 2.5846C0.981678 3.68541 0.443669 5.14318 0.500128 6.6394C0.500128 12.2852 9.63013 18.8061 10.0185 19.0827L10.5001 19.4236L10.9818 19.0827C11.3701 18.8077 20.5001 12.2852 20.5001 6.6394C20.5566 5.14318 20.0186 3.68541 19.0036 2.5846C17.9887 1.48378 16.5793 0.829397 15.0835 0.764404ZM10.5001 17.3719C7.78929 15.3469 2.16679 10.3719 2.16679 6.6394C2.10983 5.585 2.4721 4.55085 3.1746 3.76249C3.87709 2.97413 4.86282 2.49553 5.91679 2.43107C6.97077 2.49553 7.95649 2.97413 8.65899 3.76249C9.36149 4.55085 9.72376 5.585 9.66679 6.6394H11.3335C11.2765 5.585 11.6388 4.55085 12.3413 3.76249C13.0438 2.97413 14.0295 2.49553 15.0835 2.43107C16.1374 2.49553 17.1232 2.97413 17.8257 3.76249C18.5282 4.55085 18.8904 5.585 18.8335 6.6394C18.8335 10.3736 13.211 15.3469 10.5001 17.3719Z" fill="#2D63DF"/>
</g>
</svg>
